<svg xmlns="http://www.w3.org/2000/svg" viewBox="0 0 1200 630" role="img" aria-labelledby="title desc">
  <title id="title">MOSS-VL 实时视频理解</title>
  <desc id="desc">OpenMOSS MOSS-VL-Realtime continuous video understanding model</desc>
  <defs>
    <linearGradient id="bg" x1="0" y1="0" x2="1" y2="1">
      <stop offset="0" stop-color="#071a3d"/>
      <stop offset="0.55" stop-color="#0e419c"/>
      <stop offset="1" stop-color="#18a6d9"/>
    </linearGradient>
    <linearGradient id="line" x1="0" y1="0" x2="1" y2="0">
      <stop offset="0" stop-color="#8be7ff" stop-opacity="0"/>
      <stop offset="0.5" stop-color="#8be7ff"/>
      <stop offset="1" stop-color="#8be7ff" stop-opacity="0"/>
    </linearGradient>
    <marker id="arrow" markerWidth="10" markerHeight="10" refX="8" refY="3" orient="auto">
      <path d="M0,0 L0,6 L9,3 z" fill="#9feaff"/>
    </marker>
  </defs>
  <rect width="1200" height="630" fill="url(#bg)"/>
  <g opacity=".18" fill="none" stroke="#b6efff" stroke-width="2">
    <path d="M0 460 C160 360 260 520 420 425 S700 335 850 425 S1030 515 1200 380"/>
    <path d="M0 500 C180 410 280 555 450 460 S700 375 890 470 S1060 530 1200 430"/>
  </g>
  <g fill="none" stroke="#9feaff" stroke-width="3" opacity=".75">
    <rect x="90" y="110" width="220" height="145" rx="18"/>
    <rect x="380" y="110" width="220" height="145" rx="18"/>
    <rect x="670" y="110" width="220" height="145" rx="18"/>
    <path d="M310 182h70M600 182h70" marker-end="url(#arrow)"/>
  </g>
  <g fill="#d9f8ff">
    <circle cx="135" cy="158" r="12"/><circle cx="175" cy="190" r="8"/><circle cx="222" cy="160" r="17"/>
    <circle cx="425" cy="175" r="15"/><circle cx="480" cy="150" r="9"/><circle cx="535" cy="205" r="13"/>
    <circle cx="715" cy="192" r="10"/><circle cx="770" cy="153" r="18"/><circle cx="835" cy="190" r="8"/>
  </g>
  <rect x="0" y="287" width="1200" height="3" fill="url(#line)"/>
  <text x="90" y="390" fill="#ffffff" font-family="Arial, 'Microsoft YaHei', sans-serif" font-size="76" font-weight="700" letter-spacing="2">MOSS-VL</text>
  <text x="95" y="455" fill="#d9f8ff" font-family="Arial, 'Microsoft YaHei', sans-serif" font-size="30">实时视频理解 · 开放权重 · 11B</text>
  <text x="95" y="535" fill="#9feaff" font-family="Arial, 'Microsoft YaHei', sans-serif" font-size="24">OpenMOSS Vision-Language Models</text>
</svg>
