<?xml version="1.0" encoding="UTF-8"?>
<svg id="_图层_1" data-name="图层 1" xmlns="http://www.w3.org/2000/svg" xmlns:xlink="http://www.w3.org/1999/xlink" viewBox="0 0 1136.81 219.03">
  <defs>
    <style>
      .cls-1 {
        fill: #2c6ab4;
      }

      .cls-2 {
        fill: url(#_未命名的渐变_24);
      }

      .cls-3 {
        fill: url(#_未命名的渐变_28);
      }

      .cls-4 {
        fill: url(#_未命名的渐变_30);
      }

      .cls-5 {
        fill: #2c6ad2;
      }

      .cls-6 {
        fill: #b1f0f6;
      }

      .cls-7 {
        fill: #b5eef5;
      }
    </style>
    <linearGradient id="_未命名的渐变_28" data-name="未命名的渐变 28" x1="785.92" y1="66.52" x2="785.92" y2="285.55" gradientTransform="translate(-441.04 -66.52)" gradientUnits="userSpaceOnUse">
      <stop offset=".11" stop-color="#2c6ad2"/>
      <stop offset="1" stop-color="#56e4fe"/>
    </linearGradient>
    <linearGradient id="_未命名的渐变_24" data-name="未命名的渐变 24" x1="615.73" y1="285.55" x2="615.73" y2="66.52" gradientTransform="translate(-441.04 -66.52)" gradientUnits="userSpaceOnUse">
      <stop offset="0" stop-color="#54e1f1"/>
      <stop offset=".8" stop-color="#006ad3"/>
    </linearGradient>
    <linearGradient id="_未命名的渐变_30" data-name="未命名的渐变 30" x1=".84" y1="126.56" x2="500.58" y2="126.56" gradientUnits="userSpaceOnUse">
      <stop offset="0" stop-color="#54c3f1"/>
      <stop offset=".8" stop-color="#2c6ad5"/>
    </linearGradient>
  </defs>
  <g>
    <path class="cls-6" d="M279.58,175.33s199.94,48.19,220.91-55.38c0,0-7.51-13.66-18.46-19.82,0,0,8.14,100.13-196.19,63.62l-6.26,11.58Z"/>
    <path class="cls-7" d="M.48,169.17s11.06-45.47,130.79-30.87l5.21-9.39s-94.7-13.35-130.37,22.95c0,0-8.14,8.14-5.63,17.31Z"/>
    <g>
      <path class="cls-6" d="M324.43,67.89V0l-48.04,85.98c16.37-6.63,32.71-12.86,48.04-18.09Z"/>
      <path class="cls-6" d="M264.42,107.41l-42.61,76.26c-1.89,3.54.68,16.58,4.69,16.58h32.02l62.98-113.21c-15.81,4.91-34.76,11.5-57.08,20.36Z"/>
    </g>
    <g>
      <g>
        <path class="cls-1" d="M324.43,86.14v122.35c0,5.82,4.72,10.53,10.53,10.53h26.49c2.13,0,3.86-1.73,3.86-3.86V75.66c-9.8,1.92-23.31,5.13-40.89,10.48Z"/>
        <path class="cls-1" d="M365.32,56.04V11.47c0-6.34-5.14-11.47-11.47-11.47h-29.41v67.89c14.87-5.07,28.8-9.2,40.89-11.85Z"/>
      </g>
      <g>
        <g>
          <path class="cls-3" d="M324.43,86.14v122.35c0,5.82,4.72,10.53,10.53,10.53h26.49c2.13,0,3.86-1.73,3.86-3.86V75.66c-9.8,1.92-23.31,5.13-40.89,10.48Z"/>
          <path class="cls-3" d="M324.43,86.14v122.35c0,5.82,4.72,10.53,10.53,10.53h26.49c2.13,0,3.86-1.73,3.86-3.86V75.66c-9.8,1.92-23.31,5.13-40.89,10.48Z"/>
        </g>
        <g>
          <path class="cls-3" d="M365.32,56.04V11.47c0-6.34-5.14-11.47-11.47-11.47h-29.41v67.89c14.87-5.07,28.8-9.2,40.89-11.85Z"/>
          <path class="cls-3" d="M365.32,56.04V11.47c0-6.34-5.14-11.47-11.47-11.47h-29.41v67.89c14.87-5.07,28.8-9.2,40.89-11.85Z"/>
        </g>
      </g>
    </g>
    <g>
      <g>
        <path class="cls-1" d="M118.74,169.33l-27.69,47.82c-.48.83.12,1.88,1.08,1.88h25.92c12.07,0,23.23-6.4,29.32-16.81l33.8-57.74c-15.85,7.28-38.41,16.91-62.43,24.85Z"/>
        <path class="cls-1" d="M141.7,147.27s21.68-10.94,52.68-25.37l23.25-39.72v29.06c12.95-5.84,26.79-11.93,40.89-17.87V12.67c0-7-5.67-12.67-12.67-12.67h-22.95c-3.78,0-7.27,2.01-9.16,5.28l-86.37,149.15c5.1-2.34,9.97-4.75,14.33-7.16Z"/>
        <path class="cls-1" d="M217.63,127.24v63.21c0,5.41,4.39,9.8,9.8,9.8h29.83c.69,0,1.25-.56,1.25-1.25v-89.23c-12.59,5.09-26.21,10.88-40.89,17.47Z"/>
      </g>
      <g>
        <g>
          <path class="cls-2" d="M118.74,169.33l-27.69,47.82c-.48.83.12,1.88,1.08,1.88h25.92c12.07,0,23.23-6.4,29.32-16.81l33.8-57.74c-15.85,7.28-38.41,16.91-62.43,24.85Z"/>
          <path class="cls-2" d="M118.74,169.33l-27.69,47.82c-.48.83.12,1.88,1.08,1.88h25.92c12.07,0,23.23-6.4,29.32-16.81l33.8-57.74c-15.85,7.28-38.41,16.91-62.43,24.85Z"/>
        </g>
        <g>
          <path class="cls-2" d="M141.7,147.27s21.68-10.94,52.68-25.37l23.25-39.72v29.06c12.95-5.84,26.79-11.93,40.89-17.87V12.67c0-7-5.67-12.67-12.67-12.67h-22.95c-3.78,0-7.27,2.01-9.16,5.28l-86.37,149.15c5.1-2.34,9.97-4.75,14.33-7.16Z"/>
          <path class="cls-2" d="M141.7,147.27s21.68-10.94,52.68-25.37l23.25-39.72v29.06c12.95-5.84,26.79-11.93,40.89-17.87V12.67c0-7-5.67-12.67-12.67-12.67h-22.95c-3.78,0-7.27,2.01-9.16,5.28l-86.37,149.15c5.1-2.34,9.97-4.75,14.33-7.16Z"/>
        </g>
        <g>
          <path class="cls-2" d="M217.63,127.24v63.21c0,5.41,4.39,9.8,9.8,9.8h29.83c.69,0,1.25-.56,1.25-1.25v-89.23c-12.59,5.09-26.21,10.88-40.89,17.47Z"/>
          <path class="cls-2" d="M217.63,127.24v63.21c0,5.41,4.39,9.8,9.8,9.8h29.83c.69,0,1.25-.56,1.25-1.25v-89.23c-12.59,5.09-26.21,10.88-40.89,17.47Z"/>
        </g>
      </g>
    </g>
    <path class="cls-4" d="M.84,168.09s14.03,29.61,71.81,15.06c14.34-3.44,47.66-15.33,69.05-27.12,0,0,162.92-82.19,234.26-93.24,0,0,67.59-13.14,108.47,21.07,0,0,17.52,14.39,16.06,36.09,0,0-22.11-47.56-114.94-38.38,0,0-52.98,1.25-181.69,60.7,0,0-100.55,52.57-162.71,50.48,0,0-33.95.06-40.31-24.66Z"/>
  </g>
  <g>
    <path class="cls-5" d="M633.94,167.15l6.41-1.6v-68.33l-6.41-1.6v-1.6h9.61c4.2,0,7.51,1.35,9.93,4.06.92,1.07,1.71,2.39,2.35,3.95.92-1.85,2.1-3.45,3.52-4.8,3.2-3.2,7.19-4.8,11.96-4.8,4.2,0,7.94,1.09,11.21,3.26,3.27,2.17,5.87,5.38,7.79,9.61,1.92,4.24,2.88,9.38,2.88,15.43,0,9.11-2.12,16.1-6.35,20.98-4.24,4.88-9.95,7.31-17.13,7.31-3.42,0-6.41-.71-8.97-2.14-1.07-.5-2.17-1.21-3.31-2.14v20.82l6.41,1.6v1.6h-29.9v-1.6ZM672.54,140.46c1.67-3.56,2.51-10.14,2.51-19.75s-.76-15.57-2.29-19.17c-1.53-3.59-3.44-5.39-5.71-5.39-2.71,0-5.12,1.43-7.26,4.27-.93,1.21-1.71,2.64-2.35,4.27v36.84c1,1,1.78,1.71,2.35,2.14,1.92,1.43,3.81,2.14,5.66,2.14,3.06,0,5.43-1.78,7.1-5.34Z"/>
    <path class="cls-5" d="M709.32,141.47c-5.06-5.02-7.58-11.94-7.58-20.77,0-5.77,1.1-10.78,3.31-15.05,2.2-4.27,5.29-7.55,9.24-9.82,3.95-2.28,8.49-3.42,13.61-3.42s9.63.96,13.51,2.88c3.88,1.92,6.87,4.5,8.97,7.74,2.1,3.24,3.15,6.82,3.15,10.73,0,1.78-.18,3.31-.53,4.59l-.54,1.81c-3.06.64-6.37,1.18-9.93,1.6-7.47,1.07-15.02,1.6-22.64,1.6,0,8.26,1.14,14.15,3.42,17.67,2.28,3.52,5.41,5.29,9.4,5.29,2.78,0,5.36-.66,7.74-1.98,2.38-1.31,4.27-3.06,5.66-5.23,1.39-2.17,2.08-4.39,2.08-6.67h2.67c0,2.85-.85,5.55-2.56,8.11s-4.09,4.61-7.15,6.14-6.59,2.3-10.57,2.3c-9.11,0-16.19-2.51-21.25-7.53ZM730.99,120.17c1.21-.07,2.49-.25,3.84-.53.07-.35.25-1.14.53-2.35.36-1.78.54-3.67.54-5.66,0-5.91-.79-10.23-2.35-12.97-1.57-2.74-3.45-4.11-5.66-4.11-5.34,0-8.01,8.72-8.01,26.16,4.56,0,8.26-.18,11.1-.54Z"/>
    <path class="cls-5" d="M843.21,86.01v56.59l8.54,3.2v1.6h-20.29v-1.6l8.54-3.2v-66.73l-6.41-1.6v-1.6h13.35c3.7,0,6.63.76,8.81,2.29,2.17,1.53,4.04,3.79,5.6,6.78l23.28,44.52,17.83-44.52c1.21-3.13,2.85-5.43,4.91-6.89,2.06-1.46,5.23-2.19,9.5-2.19h11.21v1.6l-6.41,1.6v68.33l6.41,1.6v1.6h-30.43v-1.6l6.41-1.6v-58.19l-25.09,62.46h-3.2l-32.56-62.46Z"/>
    <path class="cls-5" d="M1029.73,145.58c-1.99-1-3.67-2.17-5.02-3.52-1,1.64-2.24,3.1-3.74,4.38-1.28.92-1.99,1.42-2.14,1.49h-2.67v-20.28h4.27c1.07,3.49,2.56,6.62,4.48,9.4,4.34,6.19,9.96,9.29,16.87,9.29,4.06,0,7.29-1.21,9.71-3.63s3.63-5.66,3.63-9.72c0-2.35-.69-4.45-2.08-6.3-1.39-1.85-3.11-3.49-5.18-4.91-2.06-1.42-4.95-3.2-8.65-5.34-4.7-2.63-8.51-5.02-11.43-7.15-2.92-2.14-5.41-4.82-7.48-8.06-2.06-3.24-3.1-7.06-3.1-11.48,0-3.48.98-6.63,2.94-9.45,1.96-2.81,4.89-5.05,8.81-6.73,3.91-1.67,8.72-2.51,14.41-2.51,4.13,0,8.26,1.18,12.39,3.52,1.56.85,3.13,1.99,4.7,3.42,1.21-1.85,2.46-3.31,3.74-4.38,1.28-.92,1.99-1.42,2.14-1.5h2.67v20.29h-4.27c-.92-3.42-2.31-6.52-4.16-9.29-1.71-2.7-3.82-4.95-6.35-6.73-2.53-1.78-5.43-2.67-8.7-2.67-2.77,0-5.16,1.1-7.15,3.31-1.99,2.21-2.99,5.02-2.99,8.43,0,2.64.76,5,2.29,7.1,1.53,2.1,3.42,3.93,5.66,5.5,2.24,1.57,5.28,3.45,9.13,5.66,4.49,2.56,8.11,4.84,10.89,6.83,2.77,1.99,5.12,4.47,7.05,7.42,1.92,2.95,2.88,6.35,2.88,10.2s-1.1,7.35-3.31,10.52c-2.21,3.17-5.52,5.68-9.93,7.53-4.41,1.85-9.79,2.78-16.12,2.78-5.06,0-9.79-1.14-14.2-3.42Z"/>
    <path class="cls-5" d="M1093.25,145.58c-1.99-1-3.67-2.17-5.02-3.52-1,1.64-2.24,3.1-3.74,4.38-1.28.92-1.99,1.42-2.14,1.49h-2.67v-20.28h4.27c1.07,3.49,2.56,6.62,4.48,9.4,4.34,6.19,9.96,9.29,16.87,9.29,4.06,0,7.29-1.21,9.71-3.63s3.63-5.66,3.63-9.72c0-2.35-.69-4.45-2.08-6.3-1.39-1.85-3.11-3.49-5.18-4.91-2.06-1.42-4.95-3.2-8.65-5.34-4.7-2.63-8.51-5.02-11.43-7.15-2.92-2.14-5.41-4.82-7.48-8.06-2.06-3.24-3.1-7.06-3.1-11.48,0-3.48.98-6.63,2.94-9.45,1.96-2.81,4.89-5.05,8.81-6.73,3.91-1.67,8.72-2.51,14.41-2.51,4.13,0,8.26,1.18,12.39,3.52,1.56.85,3.13,1.99,4.7,3.42,1.21-1.85,2.46-3.31,3.74-4.38,1.28-.92,1.99-1.42,2.14-1.5h2.67v20.29h-4.27c-.92-3.42-2.31-6.52-4.16-9.29-1.71-2.7-3.82-4.95-6.35-6.73-2.53-1.78-5.43-2.67-8.7-2.67-2.77,0-5.16,1.1-7.15,3.31-1.99,2.21-2.99,5.02-2.99,8.43,0,2.64.76,5,2.29,7.1,1.53,2.1,3.42,3.93,5.66,5.5,2.24,1.57,5.28,3.45,9.13,5.66,4.49,2.56,8.11,4.84,10.89,6.83,2.77,1.99,5.12,4.47,7.05,7.42,1.92,2.95,2.88,6.35,2.88,10.2s-1.1,7.35-3.31,10.52c-2.21,3.17-5.52,5.68-9.93,7.53-4.41,1.85-9.79,2.78-16.12,2.78-5.06,0-9.79-1.14-14.2-3.42Z"/>
    <g>
      <path class="cls-5" d="M590.01,146.73c-2.31-.3-4.49-1.4-6.51-3.39-2.39-2.35-4.36-6.26-5.93-11.75-1.57-5.48-2.35-12.67-2.35-21.57s.78-16.08,2.35-21.57c1.57-5.48,3.54-9.4,5.93-11.74,2.03-2,4.2-3.09,6.51-3.39v-2.2c-6.45.17-12.17,1.63-17.08,4.47-5.23,3.02-9.27,7.46-12.12,13.29-2.85,5.84-4.27,12.89-4.27,21.14s1.42,15.3,4.27,21.14c2.85,5.84,6.89,10.27,12.12,13.29,4.91,2.84,10.63,4.3,17.08,4.47v-2.2Z"/>
      <path class="cls-5" d="M621.66,88.89c-2.85-5.83-6.88-10.27-12.12-13.29-4.74-2.74-10.23-4.17-16.4-4.43v2.23c2.06.42,4,1.52,5.83,3.32,2.38,2.35,4.36,6.26,5.92,11.74,1.56,5.48,2.35,12.67,2.35,21.57s-.79,16.09-2.35,21.57c-1.57,5.48-3.54,9.4-5.92,11.75-1.83,1.8-3.77,2.9-5.83,3.32v2.23c6.17-.26,11.66-1.69,16.4-4.43,5.23-3.02,9.27-7.46,12.12-13.29,2.85-5.83,4.27-12.88,4.27-21.14s-1.43-15.3-4.27-21.14Z"/>
    </g>
    <g>
      <path class="cls-5" d="M971.63,146.73c-2.31-.3-4.49-1.4-6.51-3.39-2.39-2.35-4.36-6.26-5.93-11.75-1.57-5.48-2.35-12.67-2.35-21.57s.78-16.08,2.35-21.57c1.57-5.48,3.54-9.4,5.93-11.74,2.03-2,4.2-3.09,6.51-3.39v-2.2c-6.45.17-12.17,1.63-17.08,4.47-5.23,3.02-9.27,7.46-12.12,13.29-2.85,5.84-4.27,12.89-4.27,21.14s1.42,15.3,4.27,21.14c2.85,5.84,6.89,10.27,12.12,13.29,4.91,2.84,10.63,4.3,17.08,4.47v-2.2Z"/>
      <path class="cls-5" d="M1003.28,88.89c-2.85-5.83-6.88-10.27-12.12-13.29-4.74-2.74-10.23-4.17-16.4-4.43v2.23c2.06.42,4,1.52,5.83,3.32,2.38,2.35,4.36,6.26,5.92,11.74,1.56,5.48,2.35,12.67,2.35,21.57s-.79,16.09-2.35,21.57c-1.57,5.48-3.54,9.4-5.92,11.75-1.83,1.8-3.77,2.9-5.83,3.32v2.23c6.17-.26,11.66-1.69,16.4-4.43,5.23-3.02,9.27-7.46,12.12-13.29,2.85-5.83,4.27-12.88,4.27-21.14s-1.43-15.3-4.27-21.14Z"/>
    </g>
    <g>
      <path class="cls-5" d="M785.02,109.65s.02-4.75-2.37-9.18c-.05-.09-.09-.2-.14-.29-.25-.45-.57-.89-.88-1.32-.19-.26-.36-.54-.56-.78-.37-.42-.77-.8-1.19-1.16-2.28-1.93-5.19-2.9-8.75-2.9h-9.61v1.6l6.41,1.6v46.98l-6.41,1.6v1.6h29.9v-1.6l-6.41-1.6v-34.55Z"/>
      <path class="cls-5" d="M819.72,144.2v-34.17c0-2.99-.89-5.83-2.67-8.54-1.78-2.7-4.25-4.89-7.42-6.57-3.17-1.67-6.75-2.51-10.73-2.51-4.77,0-8.75,1.6-11.96,4.8-.65.65-1.26,1.37-1.84,2.15.38.87.77,1.84,1.13,2.8.35-.62.72-1.21,1.13-1.75,2.14-2.85,4.56-4.27,7.26-4.27,2.14,0,4,1.19,5.61,3.58,1.6,2.39,2.4,5.82,2.4,10.3v27.76c0,6.41,3.2,9.61,9.61,9.61h13.88v-1.6l-6.41-1.6Z"/>
    </g>
  </g>
</svg>